<svg version="1.1" id="Layer_1" xmlns="http://www.w3.org/2000/svg" xmlns:xlink="http://www.w3.org/1999/xlink" x="0px" y="0px"
	 width="100%" viewBox="0 0 1024 1024" enable-background="new 0 0 1024 1024" xml:space="preserve">
<path fill="#000000" opacity="1.000000" stroke="none" 
	d="
M442.781128,141.625854 
	C462.502533,133.960098 482.494629,129.557877 503.298523,128.608276 
	C552.942688,126.342239 597.482483,140.455429 636.009094,171.576416 
	C673.429504,201.803879 698.036316,240.534943 706.302673,288.395081 
	C718.246277,357.545929 698.727112,417.343048 649.316589,466.680450 
	C619.572021,496.381012 583.103699,514.785217 541.317078,521.061340 
	C457.944672,533.583374 371.236969,489.237244 334.009094,405.806335 
	C324.529327,384.561310 319.430969,362.208374 317.483063,338.876068 
	C310.096191,250.396271 364.973022,171.559875 442.781128,141.625854 
M341.357391,276.728210 
	C334.669983,301.635345 333.209198,326.825104 337.257233,352.315430 
	C345.420715,403.720459 371.701813,443.798676 413.405457,474.271973 
	C415.826660,476.041199 418.333557,476.647888 421.288269,476.739594 
	C430.796417,477.034668 440.232727,475.360596 449.750153,475.942139 
	C455.727325,476.307312 456.595734,475.322510 456.622101,469.118988 
	C456.657501,460.791229 456.891144,452.454407 456.592377,444.137543 
	C456.205780,433.377075 458.735382,423.371399 463.295441,413.751953 
	C464.129333,411.992828 465.364807,410.294281 464.755219,408.195099 
	C463.736176,407.194519 462.515350,407.393677 461.383881,407.411377 
	C447.226929,407.632355 433.824738,411.431091 420.541077,415.915771 
	C410.853668,419.186310 402.106720,424.402893 392.943970,428.760620 
	C391.505676,429.444672 389.938629,430.597351 388.286346,429.322388 
	C386.597839,428.019440 386.787354,426.171021 387.055267,424.289062 
	C387.827240,418.865967 388.631836,413.472717 390.222595,408.191925 
	C401.572266,370.514862 419.344971,336.357697 445.840302,307.048828 
	C458.475891,293.071442 473.232971,282.265503 492.133453,278.229248 
	C508.477112,274.739014 523.294250,276.245636 534.388000,290.701263 
	C536.608032,293.594116 539.687744,293.069061 542.250916,289.729828 
	C544.666138,286.583313 544.230469,283.121857 542.995056,279.745026 
	C541.122009,274.625458 537.955750,270.479034 533.536194,267.159454 
	C518.581360,255.926590 510.587738,241.448883 513.694824,222.282135 
	C515.577332,210.669846 520.142151,200.609970 531.462830,194.991440 
	C549.674316,185.953003 569.990540,189.975677 583.502136,205.464157 
	C585.437134,207.682251 587.645508,209.045319 590.505859,209.893951 
	C602.143738,213.346741 613.713745,217.029129 625.296326,220.666473 
	C627.782898,221.447342 630.440247,222.126389 631.113098,225.204025 
	C629.672180,227.015045 627.785583,227.125275 625.995178,227.110474 
	C606.181702,226.946777 586.356323,228.088699 566.553284,226.485764 
	C562.254395,226.137787 558.043823,224.902969 553.660706,225.362061 
	C548.342529,225.919098 546.405579,229.183990 548.667480,233.998352 
	C549.926392,236.678055 552.135071,238.388916 554.559387,239.941086 
	C561.500854,244.385361 567.783813,249.512283 571.889832,256.880157 
	C579.738647,270.964142 580.340637,286.061615 577.840271,301.464783 
	C573.921387,325.606537 561.962463,345.793335 545.984375,363.746552 
	C533.325928,377.969727 519.785400,391.271454 502.450134,399.936462 
	C498.880676,401.720642 497.949097,405.093292 497.391632,408.617981 
	C496.303375,415.498688 495.353516,422.401825 494.208862,429.272797 
	C493.799591,431.729492 493.023346,434.062653 493.903625,436.616547 
	C497.972137,448.420074 502.521637,460.035095 507.597778,471.435760 
	C509.505737,475.720917 513.013245,476.460114 517.210266,474.872589 
	C521.348450,473.307373 524.473755,470.211365 528.048340,467.792267 
	C530.789917,465.936890 533.159363,463.478729 536.476868,462.539093 
	C537.923279,462.129425 539.464050,461.451019 540.631836,462.912537 
	C541.780090,464.349548 541.038452,465.782776 540.105408,467.016449 
	C538.600647,469.005951 536.951416,470.887299 535.473022,472.895111 
	C534.678528,473.974091 534.000854,475.218262 535.264465,476.486176 
	C536.518250,477.744232 537.707031,477.060486 538.858154,476.322113 
	C540.539490,475.243713 542.113281,473.966675 543.877686,473.054169 
	C550.226990,469.770416 553.467407,471.793274 553.119263,478.738831 
	C554.972290,480.422089 557.237854,480.689453 559.624573,480.679871 
	C566.290039,480.653137 572.988708,480.253326 579.614868,480.766846 
	C596.085388,482.043304 609.568359,476.804443 622.477722,466.162994 
	C663.743042,432.147064 687.189697,389.016846 691.466797,335.836639 
	C693.334900,312.608185 690.567078,289.552185 682.591858,267.520294 
	C666.487427,223.031113 637.442810,189.422424 595.609863,167.311874 
	C553.482422,145.045609 508.929321,140.259552 463.557220,154.217239 
	C401.916138,173.179703 361.029938,214.140625 341.357391,276.728210 
M474.944336,476.645782 
	C482.512726,476.670105 490.094452,476.793854 497.546783,474.035706 
	C495.780975,465.398224 491.691010,458.075378 488.874512,450.298157 
	C486.338043,443.294128 483.200195,436.557922 483.527649,428.727814 
	C483.777374,422.756622 484.059967,416.802551 484.588623,410.851654 
	C484.699982,409.598206 484.878326,408.020447 483.189362,407.499786 
	C481.918884,407.108032 480.793335,407.814636 480.156738,408.785095 
	C474.806335,416.941742 468.189545,424.456726 466.362000,434.473022 
	C464.285248,445.855316 465.499176,457.362183 465.490906,468.806854 
	C465.487244,473.882812 469.020172,476.416382 474.944336,476.645782 
z"/>
<path fill="#000000" opacity="1.000000" stroke="none" 
	d="
M823.646912,678.999878 
	C823.364258,645.193604 823.062439,611.887512 822.812866,578.580994 
	C822.752014,570.458862 822.991333,570.280396 830.948914,569.547241 
	C847.253723,568.045105 847.307251,568.023926 853.277527,583.110229 
	C861.061279,602.779175 870.309265,621.784790 879.296509,640.909180 
	C880.208008,642.848938 881.057861,644.869080 883.722778,646.920288 
	C883.722778,644.252136 883.724854,642.231812 883.722412,640.211487 
	C883.696655,618.890991 883.805420,597.568848 883.544128,576.251221 
	C883.482544,571.227478 885.529114,569.192871 890.137146,569.094360 
	C894.463379,569.001892 898.796387,568.958130 903.120117,569.092896 
	C906.663940,569.203247 908.374634,570.932800 908.391968,574.793457 
	C908.579895,616.595459 908.865112,658.397156 909.212097,700.198120 
	C909.248047,704.527771 907.901978,706.841370 903.176147,706.427734 
	C900.532227,706.196350 897.790955,706.049927 895.195801,706.480774 
	C887.192017,707.809692 882.868652,703.843628 879.751770,697.021301 
	C871.246033,678.403015 862.487122,659.900269 853.794128,641.367859 
	C852.575378,638.769653 851.896423,635.771851 849.237305,633.893250 
	C847.777710,635.660156 848.361633,637.386475 848.358521,638.965942 
	C848.318115,659.453674 848.189453,679.943115 848.436707,700.427979 
	C848.496277,705.363586 846.539734,707.001465 842.051270,706.887573 
	C838.555908,706.798828 835.050598,707.001282 831.560425,706.840332 
	C825.421204,706.557190 823.995667,705.233948 823.761108,698.986267 
	C823.517456,692.498474 823.668518,685.995972 823.646912,678.999878 
z"/>
<path fill="#000000" opacity="1.000000" stroke="none" 
	d="
M717.650818,652.999878 
	C717.651855,626.847961 717.700134,601.195862 717.604004,575.544312 
	C717.589966,571.806396 718.538635,569.131042 722.653320,569.163635 
	C738.756470,569.291260 754.990784,568.025757 770.844421,571.735596 
	C785.819092,575.239807 794.933472,587.034241 796.472473,602.445007 
	C797.339600,611.128052 797.521973,619.663208 796.050781,628.251038 
	C794.669006,636.316772 790.080017,642.274658 783.567444,646.775269 
	C779.606689,649.512390 778.878601,652.379578 780.701233,656.902283 
	C786.420044,671.092712 791.747620,685.441223 797.184082,699.744690 
	C799.075745,704.721680 798.160034,706.155701 792.917847,706.327576 
	C788.757812,706.464050 784.563660,706.080261 780.432800,706.455872 
	C775.198486,706.932007 772.407227,704.606628 770.730835,699.888123 
	C766.109192,686.879578 761.314087,673.932678 756.579468,660.964355 
	C755.657288,658.438293 754.777344,655.964966 751.541016,655.405029 
	C745.029846,654.278503 742.801758,656.293396 742.868042,662.920166 
	C742.996155,675.731689 743.421326,688.545654 742.400696,701.354675 
	C742.116150,704.925476 740.735718,706.487366 737.187439,706.407593 
	C733.025452,706.313904 728.859253,706.429382 724.695374,706.393127 
	C718.563660,706.339722 717.679626,705.506531 717.665344,699.473511 
	C717.629028,684.149048 717.652222,668.824463 717.650818,652.999878 
M771.668945,615.245667 
	C771.668518,613.582947 771.692810,611.919861 771.663696,610.257629 
	C771.468811,599.136475 766.790833,594.190674 755.667236,593.431458 
	C753.515137,593.284546 751.326538,593.571228 749.188293,593.343018 
	C744.689514,592.863037 742.853577,594.509460 743.136414,599.226746 
	C743.504150,605.358215 743.285828,611.525513 743.299988,617.677429 
	C743.330200,630.819946 743.325012,630.819946 756.437805,630.671753 
	C766.229431,630.561157 770.912842,626.089172 771.668945,615.245667 
z"/>
<path fill="#000000" opacity="1.000000" stroke="none" 
	d="
M339.573914,797.334839 
	C339.151794,807.834473 334.572937,815.623474 326.430023,821.262939 
	C322.755493,823.807800 322.257477,826.375305 323.937439,830.507324 
	C329.886536,845.139465 335.468445,859.921387 341.133728,874.668030 
	C343.082581,879.740845 342.241394,881.075134 336.906067,881.142639 
	C332.414856,881.199585 327.920105,880.865051 323.425568,880.806335 
	C318.876862,880.746887 316.172119,878.714539 314.613831,874.282776 
	C310.145966,861.575928 305.318054,848.996094 300.686768,836.346130 
	C298.584564,830.604065 294.349670,828.525757 288.646667,830.445984 
	C285.812012,831.400391 286.207458,833.695740 286.201538,835.798950 
	C286.172516,846.125427 286.454590,856.459778 286.146759,866.776978 
	C285.675842,882.560791 285.229279,881.113037 271.648651,881.159241 
	C270.149963,881.164368 268.651123,881.108337 267.152313,881.085144 
	C262.826324,881.018127 260.798553,878.723022 260.761566,874.497314 
	C260.742645,872.332153 260.712921,870.167053 260.712067,868.001892 
	C260.696930,829.692749 260.677124,791.383606 260.680084,753.074463 
	C260.680725,744.906982 260.949890,744.527649 269.157440,744.689697 
	C282.292694,744.948914 295.425262,744.087830 308.570953,745.546631 
	C325.967072,747.477173 339.239624,761.476318 339.315704,778.988098 
	C339.341644,784.961609 341.047943,790.901428 339.573914,797.334839 
M290.889435,768.350525 
	C287.899994,768.159119 286.171753,769.191040 286.206909,772.553894 
	C286.309357,782.361511 286.277435,792.170593 286.295746,801.979065 
	C286.299713,804.100586 287.107361,805.618958 289.446442,805.572571 
	C294.242096,805.477661 299.025269,806.024353 303.834808,804.938416 
	C309.148682,803.738647 312.696655,800.731201 313.635742,795.558228 
	C317.142426,776.241577 312.251099,767.195496 293.782623,768.328308 
	C293.119965,768.368958 292.452942,768.339233 290.889435,768.350525 
z"/>
<path fill="#000000" opacity="1.000000" stroke="none" 
	d="
M522.131836,706.417969 
	C514.437988,706.286133 513.781738,705.624207 513.779236,698.253357 
	C513.765564,657.942932 513.758667,617.632507 513.756714,577.322083 
	C513.756348,570.853882 514.884277,569.698120 521.234497,569.652710 
	C525.231995,569.624084 529.240662,569.835999 533.224915,569.605042 
	C537.796814,569.340149 539.445618,571.312073 539.397827,575.781128 
	C539.251770,589.438599 539.341553,603.098511 539.350830,616.757507 
	C539.356140,624.590149 539.572388,624.787231 547.608704,624.744995 
	C553.105469,624.716064 558.602295,624.704346 564.098999,624.668457 
	C570.572266,624.626160 570.775146,624.614807 570.845154,617.859741 
	C570.976379,605.203247 570.892944,592.544006 570.825989,579.886230 
	C570.773315,569.940613 570.993347,569.659790 580.652771,569.662415 
	C584.150757,569.663391 587.649170,569.705872 591.146667,569.666321 
	C594.158630,569.632202 595.871033,571.127930 596.211548,574.035828 
	C596.636414,577.663879 597.156677,581.312866 597.159729,584.953308 
	C597.190918,622.098389 597.132690,659.243591 597.081360,696.388733 
	C597.069031,705.323853 596.033752,706.359009 586.976074,706.360535 
	C569.634644,706.363342 571.749451,708.164001 571.655701,691.322205 
	C571.589844,679.495911 571.685303,667.668701 571.625244,655.842346 
	C571.591064,649.115784 570.788940,648.367432 564.216187,648.341858 
	C558.053101,648.317871 551.881409,648.525391 545.729431,648.261353 
	C541.021729,648.059204 539.195312,649.743469 539.271301,654.596008 
	C539.498108,669.084229 539.382629,683.578308 539.351379,698.070007 
	C539.334839,705.739319 538.662048,706.374329 531.108459,706.404846 
	C528.276489,706.416321 525.444519,706.413452 522.131836,706.417969 
z"/>
<path fill="#000000" opacity="1.000000" stroke="none" 
	d="
M266.997070,570.751526 
	C282.350555,578.970642 288.125641,592.282471 288.278809,608.508423 
	C288.470551,628.826355 288.528900,649.149963 288.275513,669.466492 
	C287.989899,692.367065 272.605438,707.173950 249.677902,707.440735 
	C242.785568,707.520874 236.081192,706.656494 229.436264,705.093628 
	C215.496658,701.815063 206.454254,690.452698 205.654221,676.092957 
	C204.504776,655.461853 204.591095,634.821655 204.732269,614.179260 
	C204.781158,607.031433 205.508560,599.928284 207.570038,593.015259 
	C212.057816,577.965759 223.277710,568.210754 238.818878,566.833313 
	C248.271698,565.995361 257.811890,566.129700 266.997070,570.751526 
M258.967163,681.444397 
	C261.675293,678.460510 262.664032,674.991516 262.713470,670.936707 
	C262.900238,655.629211 262.278564,640.326172 263.468567,625.005249 
	C264.142578,616.328308 264.921326,607.308533 260.537079,599.052612 
	C256.970215,592.336060 249.903107,589.050354 242.469620,590.656799 
	C235.286224,592.209167 231.718353,597.279541 231.167694,605.550171 
	C229.693665,627.688843 231.765274,649.819336 231.106659,671.939148 
	C230.778442,682.962891 238.123627,686.245911 246.618027,686.512939 
	C250.962112,686.649475 255.144302,685.139954 258.967163,681.444397 
z"/>
<path fill="#000000" opacity="1.000000" stroke="none" 
	d="
M724.673096,754.101685 
	C724.700745,745.103149 725.109741,744.656799 733.537781,744.107910 
	C734.699585,744.032288 735.868347,744.041138 737.033752,744.047668 
	C748.440796,744.111816 749.852539,742.817505 750.052307,757.088318 
	C750.593018,795.720215 750.324280,834.363708 750.329529,873.002563 
	C750.330383,879.062012 749.106079,880.162048 742.915588,880.248169 
	C740.418091,880.282837 737.919067,880.253723 735.421326,880.214478 
	C725.450378,880.057861 724.983826,879.548523 724.950623,869.763000 
	C724.904907,856.273621 724.841919,842.783875 724.693909,829.295288 
	C724.627014,823.196167 723.906799,822.533386 717.687622,822.447632 
	C711.692993,822.364929 705.691650,822.564514 699.702209,822.366760 
	C695.152527,822.216553 692.998474,823.730713 693.078491,828.665466 
	C693.296997,842.151794 693.174255,855.643860 693.163452,869.133606 
	C693.161987,870.960632 693.110474,872.795593 692.936768,874.612915 
	C692.561646,878.537720 690.631958,880.621643 686.393982,880.321045 
	C682.578796,880.050476 678.736755,880.183350 674.912720,880.006409 
	C670.750305,879.813904 668.413330,877.771362 668.675476,873.356873 
	C668.695129,873.025146 668.664795,872.690796 668.670349,872.357849 
	C669.326050,832.720459 667.279846,793.106873 667.621643,753.472046 
	C667.687195,745.871887 668.706116,744.770203 676.175964,744.678589 
	C679.506531,744.637695 682.838074,744.633362 686.168762,744.663513 
	C691.923889,744.715576 693.149963,745.868958 693.195557,751.727783 
	C693.299133,765.051086 693.299683,778.375122 693.347290,791.698853 
	C693.375671,799.644897 693.380066,799.649780 701.541565,799.648743 
	C707.204163,799.648071 712.872742,799.466858 718.527344,799.674316 
	C722.997437,799.838379 724.841370,798.115601 724.779053,793.555664 
	C724.601624,780.567505 724.689758,767.575745 724.673096,754.101685 
z"/>
<path fill="#000000" opacity="1.000000" stroke="none" 
	d="
M338.924652,602.000000 
	C338.794250,624.648621 338.542297,646.797607 338.615112,668.945557 
	C338.633240,674.463562 338.223206,680.632141 344.771881,683.575195 
	C351.795410,686.731628 358.661896,686.637878 365.173340,682.224121 
	C368.100372,680.240051 368.703278,677.145203 368.712677,673.861938 
	C368.769958,653.876648 368.470001,633.881653 369.013947,613.909668 
	C369.349579,601.586121 369.187256,589.295288 368.984955,576.986877 
	C368.879944,570.598206 369.873199,569.677002 376.057404,569.653564 
	C380.221100,569.637756 384.386200,569.641602 388.548553,569.733154 
	C392.184570,569.813110 394.260315,571.337769 394.706268,575.362244 
	C395.301636,580.734924 394.283997,585.992065 394.303802,591.314453 
	C394.403503,618.131104 394.013275,644.953430 394.435822,671.763733 
	C394.815460,695.850098 378.750336,706.585876 358.200378,708.291809 
	C350.305511,708.947144 342.657288,707.303223 335.253998,704.518677 
	C321.138000,699.209167 314.177185,689.204163 313.624481,674.177795 
	C312.497711,643.542236 312.870300,612.893677 313.216278,582.263428 
	C313.378387,567.910278 311.570587,569.518616 325.854004,569.624023 
	C338.929871,569.720581 338.918915,569.885864 338.891266,583.011047 
	C338.878296,589.173950 338.911133,595.337036 338.924652,602.000000 
z"/>
<path fill="#000000" opacity="1.000000" stroke="none" 
	d="
M453.866760,870.162476 
	C462.632996,838.009216 471.302307,806.270447 479.969116,774.531067 
	C482.157501,766.516724 484.456116,758.529785 486.471191,750.471985 
	C487.464233,746.501160 489.427307,744.602112 493.725952,744.528870 
	C498.208252,744.452454 502.662842,744.217163 507.171295,744.344238 
	C512.844360,744.504028 515.050293,747.392212 516.115051,752.409302 
	C519.252869,767.194397 522.704468,781.899109 526.823486,796.458923 
	C533.018372,818.356079 538.870422,840.351318 544.726501,862.342590 
	C545.917725,866.815857 546.595032,871.438904 547.298828,876.025146 
	C547.907654,879.992737 545.720764,881.877808 541.976685,882.289795 
	C541.480957,882.344360 540.978333,882.360962 540.479187,882.356506 
	C519.360718,882.167114 523.428223,882.398132 519.556519,866.216736 
	C516.462158,853.283875 516.611633,853.234985 503.125122,853.078552 
	C498.126556,853.020630 493.124237,853.136597 488.128937,852.991150 
	C484.901428,852.897156 483.249573,854.366333 482.479950,857.390686 
	C480.841980,863.827393 478.953003,870.201965 477.400818,876.658142 
	C476.595917,880.006165 474.713867,881.396667 471.392456,881.333252 
	C467.561310,881.260071 463.726471,881.377441 459.895386,881.302429 
	C453.186371,881.170959 451.945251,879.553650 453.373779,873.042114 
	C453.551849,872.230530 453.639435,871.399048 453.866760,870.162476 
M509.672333,824.497131 
	C506.289673,813.241333 505.121155,801.370972 500.837097,789.594604 
	C499.877075,790.852417 499.434967,791.191284 499.318970,791.618652 
	C496.064484,803.609863 492.802307,815.599243 489.647430,827.616821 
	C488.945740,830.289673 490.877899,830.635559 492.904114,830.636719 
	C497.227325,830.639221 501.558777,830.478943 505.871490,830.693542 
	C510.224152,830.910095 511.290649,829.126099 509.672333,824.497131 
z"/>
<path fill="#000000" opacity="1.000000" stroke="none" 
	d="
M165.574524,572.268921 
	C178.060303,579.460999 181.856247,591.021667 182.774231,603.983032 
	C183.018951,607.438293 181.048050,609.522522 177.176315,609.373352 
	C173.184830,609.219421 169.181808,609.262756 165.186279,609.342346 
	C160.624084,609.433167 158.144608,607.583191 157.537048,602.779053 
	C156.899002,597.734070 154.265305,593.717957 149.346008,591.660522 
	C143.050323,589.027405 135.374832,590.624390 131.973236,595.187805 
	C128.297165,600.119446 128.792557,608.488770 133.093719,613.824768 
	C136.972687,618.636963 142.489731,621.170837 147.636047,624.208984 
	C157.135101,629.817078 166.062103,636.096985 173.522858,644.374939 
	C189.546631,662.153809 185.107986,693.585754 164.049835,703.652405 
	C149.144440,710.777832 134.249023,709.867188 119.889000,702.453796 
	C111.980797,698.371155 106.221558,691.757019 104.137306,682.775208 
	C103.091461,678.268250 102.731506,673.593933 102.194626,668.979797 
	C101.808456,665.660889 103.650711,663.858765 106.784210,663.759888 
	C112.107353,663.591797 117.441681,663.660400 122.768555,663.767212 
	C126.648300,663.844971 127.029716,666.732910 127.281540,669.716370 
	C128.223007,680.870056 136.005157,686.678955 146.907379,684.412170 
	C157.183411,682.275574 161.346222,672.973572 156.377045,663.263367 
	C153.408630,657.462891 148.269958,654.128113 142.717117,651.295593 
	C133.615417,646.652771 125.309158,640.806213 117.686531,634.078003 
	C101.904472,620.147827 99.743660,594.369080 112.857040,579.199158 
	C123.448891,566.946228 145.112915,562.851929 161.234741,570.072083 
	C162.600861,570.683838 163.918152,571.404724 165.574524,572.268921 
z"/>
<path fill="#000000" opacity="1.000000" stroke="none" 
	d="
M643.107361,846.582825 
	C641.932800,852.906006 640.929688,858.811829 637.900208,864.114929 
	C628.777588,880.084290 609.746887,887.345276 590.898987,882.766907 
	C570.730652,877.867798 562.570068,862.011475 561.844238,844.566101 
	C561.055481,825.609192 561.306824,806.581543 561.850952,787.606201 
	C562.204651,775.271057 563.780823,762.912231 572.814392,753.190308 
	C583.610229,741.571838 597.547852,739.673401 611.897705,742.574463 
	C627.160645,745.660095 636.931091,755.842102 641.055786,770.945740 
	C642.447327,776.041321 643.609253,781.252747 643.367065,786.664246 
	C643.196655,790.469910 641.843384,792.547058 637.664246,792.423645 
	C632.850403,792.281372 628.025696,792.534180 623.205322,792.579590 
	C618.517273,792.623840 616.698975,789.911621 616.689575,785.599182 
	C616.681946,782.102722 616.717285,778.628723 615.603882,775.232666 
	C613.389282,768.477905 607.706421,765.336731 599.213318,766.288208 
	C593.061707,766.977295 588.645386,771.833313 588.336853,778.581726 
	C587.302124,801.210938 587.125305,823.856873 587.399353,846.503113 
	C587.501343,854.931091 593.217346,859.827087 602.218994,859.723816 
	C611.190063,859.620911 616.530823,854.600708 616.650513,846.100098 
	C616.821838,833.937866 614.886658,834.636902 628.281677,834.649597 
	C630.613831,834.651855 632.946106,834.649475 635.278198,834.661438 
	C642.561890,834.698853 643.371643,835.497070 643.335388,842.647766 
	C643.329468,843.812439 643.240234,844.976624 643.107361,846.582825 
z"/>
<path fill="#000000" opacity="1.000000" stroke="none" 
	d="
M663.005127,649.080444 
	C647.956482,649.042908 647.955627,649.042908 648.016846,663.441833 
	C648.034546,667.604797 648.337280,671.789795 648.008667,675.924988 
	C647.612915,680.906067 649.837341,682.263794 654.428650,682.121399 
	C663.912842,681.827271 673.408142,681.880127 682.898926,681.811401 
	C691.212341,681.751160 692.381165,682.891052 692.324341,691.290771 
	C692.205505,708.859985 693.844177,706.149231 677.021973,706.385986 
	C662.540466,706.589722 648.050598,705.988953 633.574707,706.848877 
	C632.086243,706.937256 630.573242,706.863403 629.087891,706.708862 
	C623.795166,706.158325 622.305298,704.331360 622.321960,698.919922 
	C622.436279,661.789978 622.542786,624.659973 622.581116,587.529907 
	C622.585083,583.710815 622.069214,579.893677 621.894226,576.071106 
	C621.698059,571.786865 623.604614,569.620178 628.115112,569.629456 
	C646.758606,569.667603 665.401489,569.734436 684.041138,569.018005 
	C690.509827,568.769348 692.306580,570.692993 693.063782,577.042725 
	C694.736572,591.069458 692.835999,593.252930 678.812134,593.320984 
	C670.319702,593.362244 661.824219,593.495178 653.335815,593.316467 
	C649.382629,593.233276 648.015747,594.819397 648.116333,598.633240 
	C648.296326,605.455994 648.388855,612.294312 648.123779,619.110779 
	C647.956421,623.412903 649.445679,624.964539 653.810181,625.044006 
	C661.785950,625.189148 669.762878,624.370850 677.753540,625.398254 
	C681.771301,625.914734 683.298096,627.861328 683.305725,631.567017 
	C683.314270,635.729858 683.316284,639.892761 683.290283,644.055420 
	C683.268494,647.546143 681.434509,649.249573 677.989746,649.229736 
	C673.160767,649.201843 668.332031,649.134277 663.005127,649.080444 
z"/>
<path fill="#000000" opacity="1.000000" stroke="none" 
	d="
M396.405579,799.642700 
	C404.191895,799.649231 411.525238,799.612122 418.857849,799.669434 
	C424.668945,799.714844 426.144257,801.196106 426.302490,807.134521 
	C426.400116,810.798462 426.218933,814.471069 426.358948,818.132385 
	C426.508423,822.040649 424.666626,823.466248 420.911041,823.404663 
	C412.746674,823.270752 404.575836,823.461243 396.414368,823.253906 
	C392.469696,823.153687 391.109741,824.705200 391.207306,828.560852 
	C391.405457,836.389099 391.407318,844.228088 391.236145,852.057190 
	C391.160553,855.513916 392.359833,856.779114 395.854309,856.727356 
	C406.518250,856.569519 417.186035,856.632141 427.852081,856.676270 
	C433.283783,856.698730 435.195068,858.388977 435.191345,863.765686 
	C435.188141,868.413757 434.671570,873.066040 434.278320,877.707764 
	C433.939484,881.706848 430.743408,881.086365 428.215698,881.100586 
	C413.883728,881.180969 399.551147,881.154480 385.218781,881.164124 
	C381.219086,881.166809 377.216461,881.266357 373.220367,881.147888 
	C367.612549,880.981567 365.727936,879.126160 365.688080,873.520081 
	C365.603943,861.687866 365.660522,849.854614 365.659454,838.021790 
	C365.656891,809.356323 365.646545,780.690857 365.657501,752.025391 
	C365.660126,745.149780 365.967804,744.410400 372.896301,744.266418 
	C391.554932,743.878540 410.221832,743.873352 428.885742,743.765930 
	C433.338043,743.740295 435.035675,746.643738 435.262970,750.547119 
	C435.475708,754.201782 435.153198,757.888489 435.385773,761.540771 
	C435.704254,766.542175 432.810760,768.012512 428.616089,768.068054 
	C418.951294,768.196106 409.285126,768.241272 399.619354,768.272888 
	C391.327423,768.299988 391.327698,768.271057 391.334595,776.355774 
	C391.339813,782.522156 391.441315,788.690613 391.309662,794.854065 
	C391.238007,798.208679 392.453430,799.934692 396.405579,799.642700 
z"/>
<path fill="#000000" opacity="1.000000" stroke="none" 
	d="
M485.873322,593.273376 
	C481.389374,593.283569 477.390045,593.291565 473.390747,593.304810 
	C466.366394,593.328003 466.348358,593.329346 466.345612,600.158630 
	C466.333527,630.153503 466.260773,660.148682 466.354980,690.143250 
	C466.410950,707.960266 466.254028,705.174805 451.326508,705.371826 
	C450.160278,705.387207 448.993469,705.378601 447.827179,705.362122 
	C442.175323,705.282104 440.764465,704.056152 440.739868,698.274780 
	C440.688141,686.111206 440.335205,673.917175 441.038910,661.789734 
	C442.034485,644.632263 441.404968,627.485657 441.702698,610.337952 
	C441.748962,607.672668 441.698578,605.005676 441.685638,602.339478 
	C441.637512,592.426758 442.551849,593.397156 432.400970,593.267151 
	C428.402405,593.215942 424.402283,593.229980 420.403473,593.272339 
	C417.029297,593.308044 415.302216,591.714722 414.588501,588.384888 
	C413.597687,583.762634 413.650421,579.126953 413.664673,574.464172 
	C413.674652,571.208740 415.045746,569.610107 418.490662,569.622925 
	C441.486267,569.708435 464.482208,569.710266 487.478058,569.725342 
	C492.278320,569.728516 494.456757,572.086487 494.255188,576.875244 
	C494.136169,579.702271 494.253937,582.539795 494.285034,585.372437 
	C494.365997,592.750488 493.919098,593.200378 485.873322,593.273376 
z"/>
</svg>