<svg version="1.1" id="Layer_1" xmlns="http://www.w3.org/2000/svg" xmlns:xlink="http://www.w3.org/1999/xlink" x="0px" y="0px"
	 width="100%" viewBox="0 0 464 464" enable-background="new 0 0 464 464" xml:space="preserve">
<path fill="#000000" opacity="1.000000" stroke="none" 
	d="
M306.804504,419.966095 
	C281.764038,430.153870 256.037292,435.628326 229.467957,434.100006 
	C161.700851,430.201965 108.138046,400.461182 70.600266,343.478516 
	C53.890209,318.112488 44.093102,290.085876 40.483814,259.746979 
	C34.292412,207.703415 46.294067,160.469589 77.664520,118.648308 
	C109.115662,76.719452 151.142380,49.962147 202.847687,42.256210 
	C283.701782,30.206064 348.847626,58.671402 397.132324,124.777641 
	C415.455780,149.864151 426.525757,178.240402 430.065155,208.955780 
	C437.645996,274.743408 418.114349,331.519318 370.745789,378.197937 
	C352.387238,396.289124 331.026093,410.021423 306.804504,419.966095 
M240.926437,117.637405 
	C243.691956,112.935631 247.421677,109.282547 252.247910,106.648483 
	C270.003784,96.957680 290.652588,100.306152 304.566589,115.494110 
	C307.286316,118.462860 310.280975,120.311813 314.080536,121.433456 
	C325.246704,124.729759 336.363617,128.197174 347.457092,131.731750 
	C349.844086,132.492294 352.775421,133.010681 352.993439,136.455688 
	C351.381561,137.830368 349.520782,138.070267 347.714539,138.062210 
	C328.563446,137.976578 309.408447,138.884323 290.258087,137.571289 
	C285.452881,137.241821 280.748962,135.884216 275.871033,136.354431 
	C270.246582,136.896622 268.298187,140.281830 270.842438,145.315216 
	C272.424225,148.444550 275.299347,150.203918 278.076965,152.037445 
	C283.114075,155.362473 287.831024,159.031570 291.346252,164.029068 
	C301.851196,178.963562 302.553650,195.679153 299.758575,212.828949 
	C296.205780,234.627853 285.976501,253.363678 271.922302,270.064117 
	C258.237885,286.325165 243.374451,301.331055 224.108261,311.130829 
	C220.612701,312.908844 219.981186,316.179901 219.435532,319.459351 
	C218.264496,326.497284 217.257889,333.562622 216.185730,340.617004 
	C215.888931,342.569702 215.026428,344.452148 215.667465,346.511475 
	C219.530548,358.921661 224.490265,370.909149 229.892151,382.704620 
	C231.687531,386.624969 235.123489,387.531464 239.176086,385.901184 
	C242.951843,384.382202 245.930618,381.671600 249.186584,379.370758 
	C252.162582,377.267822 254.854324,374.702423 258.436493,373.572479 
	C259.874939,373.118744 261.415833,372.558075 262.586517,374.014984 
	C263.785400,375.507019 262.889130,376.864441 261.969513,378.078796 
	C260.463226,380.067871 258.841187,381.969482 257.342163,383.963776 
	C256.494598,385.091339 256.018860,386.328461 257.329926,387.517761 
	C258.408844,388.496490 259.505920,388.133575 260.540405,387.492371 
	C262.378387,386.353027 264.108368,385.021057 266.010468,384.007996 
	C268.574951,382.642090 271.392120,381.767914 274.079346,383.469818 
	C277.113922,385.391724 274.116730,387.941376 274.315186,390.155914 
	C276.217773,391.212463 278.139160,391.643555 280.170990,391.640259 
	C291.003754,391.622681 301.844818,391.855103 312.666321,391.496979 
	C319.588745,391.267914 326.246490,390.396454 332.437683,386.003479 
	C379.143951,352.862946 407.194031,308.790833 412.868408,251.198822 
	C415.372314,225.785278 412.651886,200.985062 404.024445,177.032135 
	C390.734222,140.133820 367.457306,110.656891 335.076477,88.713608 
	C297.144257,63.008331 255.146423,53.086998 209.743134,59.632137 
	C174.579285,64.701202 143.447342,79.238510 117.027237,103.089897 
	C67.955307,147.390793 49.255901,202.848846 59.906799,267.544342 
	C67.937363,316.323486 94.327820,354.526062 133.541046,384.138885 
	C136.859344,386.644775 140.376602,387.702637 144.621475,387.779541 
	C153.957031,387.948792 163.232117,386.126953 172.574921,387.165833 
	C177.884735,387.756256 178.618881,387.054840 178.635956,381.545746 
	C178.661758,373.222504 178.957825,364.884735 178.573090,356.579346 
	C178.058746,345.475586 180.521088,335.132416 185.052872,325.116516 
	C185.886978,323.273041 187.529144,321.466187 186.610184,319.248444 
	C185.479706,318.281525 184.286972,318.347321 183.127747,318.366364 
	C172.217606,318.545441 161.755829,321.155914 151.308685,324.028229 
	C138.507645,327.547668 126.877693,333.671570 115.157600,339.644073 
	C113.597778,340.438965 111.877594,341.783813 110.100586,340.185883 
	C108.559982,338.800537 108.816200,336.932159 109.066315,335.052460 
	C109.856369,329.114746 110.933174,323.256958 112.732887,317.521240 
	C124.139244,281.168976 141.196609,247.960983 166.724045,219.354828 
	C179.782776,204.721191 194.826492,193.373764 214.403717,189.169846 
	C230.559509,185.700623 245.289246,187.315765 256.251984,201.536469 
	C257.339691,202.947388 258.664368,204.049500 260.505127,203.338791 
	C262.907440,202.411331 264.927094,200.859131 265.570557,198.210449 
	C266.212616,195.567383 265.934906,192.931763 264.914368,190.376114 
	C262.887665,185.300720 259.681641,181.283615 255.273407,177.932281 
	C234.822891,162.384827 229.648636,141.044968 240.926437,117.637405 
M208.870224,387.342499 
	C210.013428,387.136505 211.148788,386.850250 212.301117,386.737640 
	C219.376617,386.046234 220.280792,384.582397 217.599350,377.868164 
	C215.813171,373.395599 214.138474,368.864288 212.079636,364.517578 
	C206.920624,353.625702 204.460983,342.282104 205.678635,330.223846 
	C205.977829,327.261078 206.309845,324.299500 206.502304,321.329285 
	C206.566635,320.336395 206.182510,319.255585 205.190948,318.807739 
	C203.952118,318.248199 202.782181,318.848755 202.128326,319.842529 
	C196.854706,327.858063 190.352539,335.291199 188.442688,345.044861 
	C186.156952,356.718292 187.434448,368.571869 187.526703,380.339233 
	C187.562469,384.902039 190.884201,387.441772 195.517776,387.574280 
	C199.667511,387.692993 203.825073,387.538696 208.870224,387.342499 
z"/>
</svg>